<?xml version="1.0" encoding="utf-8"?>
<!-- Generator: Adobe Illustrator 19.0.0, SVG Export Plug-In . SVG Version: 6.00 Build 0)  -->
<svg version="1.1" id="Layer_1" xmlns="http://www.w3.org/2000/svg" xmlns:xlink="http://www.w3.org/1999/xlink" x="0px" y="0px"
	 viewBox="0 0 100 32" style="enable-background:new 0 0 100 32;" xml:space="preserve">
<style type="text/css">
	.st0{fill:#fff;}
</style>
<g id="XMLID_3_">
	<path id="XMLID_33_" class="st0" d="M22,11.7v0.4c0.6-0.8,1.2-1.3,1.9-1.7c0.7-0.4,1.4-0.5,2.2-0.5c1,0,1.9,0.3,2.8,0.8
		c0.8,0.5,1.5,1.3,2,2.3s0.7,2.2,0.7,3.5c0,1-0.1,1.9-0.4,2.7c-0.3,0.8-0.7,1.5-1.2,2.1s-1.1,1-1.7,1.3c-0.7,0.3-1.4,0.5-2.2,0.5
		c-0.9,0-1.7-0.2-2.3-0.6c-0.6-0.4-1.2-0.9-1.8-1.6v4.9c0,1.4-0.5,2.1-1.6,2.1c-0.6,0-1-0.2-1.2-0.6s-0.3-0.9-0.3-1.6v-14
		c0-0.6,0.1-1.1,0.4-1.4s0.6-0.5,1.1-0.5s0.8,0.2,1.1,0.5C21.8,10.6,22,11.1,22,11.7z M28.4,16.4c0-0.9-0.1-1.6-0.4-2.2
		c-0.3-0.6-0.6-1.1-1.1-1.4c-0.5-0.3-1-0.5-1.5-0.5c-0.9,0-1.7,0.4-2.3,1.1s-0.9,1.7-0.9,3.1c0,1.3,0.3,2.3,0.9,3s1.4,1.1,2.3,1.1
		c0.5,0,1-0.2,1.5-0.5s0.8-0.8,1.1-1.4C28.2,18,28.4,17.3,28.4,16.4z"/>
	<path id="XMLID_30_" class="st0" d="M44.6,8.4c-0.5,0-0.8-0.1-1.2-0.4c-0.3-0.3-0.5-0.7-0.5-1.2s0.2-0.8,0.5-1.1
		c0.3-0.3,0.7-0.4,1.2-0.4c0.4,0,0.8,0.1,1.1,0.4C46,6,46.2,6.4,46.2,6.9S46,7.8,45.7,8.1C45.4,8.4,45,8.4,44.6,8.4z M46.2,11.7v9.4
		c0,0.6-0.2,1.1-0.5,1.5c-0.3,0.4-0.7,0.5-1.2,0.5s-0.9-0.2-1.2-0.5c-0.3-0.3-0.4-0.8-0.4-1.5v-9.3c0-0.6,0.1-1.1,0.4-1.4
		c0.3-0.3,0.7-0.5,1.2-0.5s0.9,0.2,1.2,0.5C46,10.7,46.2,11.1,46.2,11.7z"/>
	<path id="XMLID_29_" class="st0" d="M67.7,21.2v-0.4c-0.4,0.5-0.8,0.9-1.2,1.2c-0.4,0.3-0.9,0.6-1.4,0.7c-0.5,0.2-1.1,0.2-1.7,0.2
		c-0.8,0-1.5-0.2-2.1-0.5s-1.1-0.8-1.4-1.3c-0.4-0.7-0.6-1.7-0.6-3v-6.4c0-0.6,0.1-1.1,0.4-1.5c0.3-0.3,0.7-0.5,1.2-0.5
		s0.9,0.2,1.2,0.5c0.3,0.3,0.5,0.8,0.5,1.4v5.2c0,0.8,0.1,1.4,0.2,1.9c0.1,0.5,0.4,0.9,0.7,1.2c0.3,0.3,0.8,0.4,1.3,0.4
		s1.1-0.2,1.6-0.5s0.8-0.7,1.1-1.3c0.2-0.5,0.3-1.5,0.3-3v-3.9c0-0.6,0.2-1.1,0.5-1.4c0.3-0.3,0.7-0.5,1.2-0.5s0.9,0.2,1.2,0.5
		c0.3,0.3,0.4,0.8,0.4,1.5v9.4c0,0.6-0.1,1.1-0.4,1.4S70.1,23,69.6,23s-0.8-0.2-1.1-0.5C67.9,22.2,67.7,21.8,67.7,21.2z"/>
	<path id="XMLID_16_" class="st0" d="M83,21.2v-0.3c-0.4,0.5-0.9,0.9-1.3,1.2c-0.4,0.3-0.9,0.5-1.4,0.7s-1,0.2-1.6,0.2
		c-0.8,0-1.5-0.2-2.2-0.5s-1.2-0.8-1.7-1.4s-0.9-1.3-1.1-2.1c-0.2-0.8-0.4-1.7-0.4-2.7c0-2,0.5-3.6,1.5-4.7s2.3-1.7,3.9-1.7
		c0.9,0,1.7,0.2,2.4,0.5c0.6,0.3,1.3,0.8,1.9,1.5V7.1c0-0.7,0.1-1.2,0.4-1.5s0.6-0.5,1.1-0.5s0.9,0.2,1.1,0.5
		C85.9,5.8,86,6.3,86,6.9v14.3c0,0.6-0.1,1.1-0.4,1.4s-0.7,0.5-1.1,0.5s-0.8-0.2-1.1-0.5C83.1,22.2,83,21.8,83,21.2z M76.6,16.4
		c0,0.9,0.1,1.6,0.4,2.2s0.6,1.1,1.1,1.4s1,0.5,1.6,0.5s1.1-0.1,1.6-0.4s0.9-0.8,1.1-1.4c0.3-0.6,0.4-1.4,0.4-2.3s-0.1-1.6-0.4-2.2
		c-0.3-0.6-0.7-1.1-1.1-1.4c-0.5-0.3-1-0.5-1.6-0.5s-1.1,0.2-1.6,0.5s-0.8,0.8-1.1,1.4C76.7,14.9,76.6,15.6,76.6,16.4z"/>
	<path id="XMLID_11_" class="st0" d="M97.3,17.2h-6.4c0,0.7,0.2,1.4,0.4,1.9c0.3,0.6,0.7,1,1.2,1.3s1,0.4,1.6,0.4
		c0.4,0,0.7,0,1.1-0.1c0.3-0.1,0.6-0.2,0.9-0.4s0.6-0.4,0.8-0.6c0.3-0.2,0.6-0.5,1-0.9c0.2-0.1,0.4-0.2,0.7-0.2
		c0.3,0,0.6,0.1,0.8,0.3c0.2,0.2,0.3,0.4,0.3,0.8c0,0.3-0.1,0.6-0.3,1c-0.2,0.4-0.6,0.8-1,1.1c-0.5,0.4-1.1,0.7-1.8,0.9
		c-0.7,0.2-1.5,0.4-2.4,0.4c-2.1,0-3.7-0.6-4.9-1.8s-1.7-2.9-1.7-4.9c0-1,0.1-1.8,0.4-2.7s0.7-1.5,1.3-2.1c0.5-0.6,1.2-1,2-1.3
		C92.1,10,93,9.8,94,9.8c1.3,0,2.4,0.3,3.3,0.8s1.6,1.2,2,2.1c0.5,0.8,0.7,1.7,0.7,2.6c0,0.8-0.2,1.3-0.7,1.6
		C98.8,17.1,98.2,17.2,97.3,17.2z M90.9,15.4h5.9c-0.1-1.1-0.4-1.9-0.9-2.5c-0.5-0.5-1.2-0.8-2.1-0.8c-0.8,0-1.5,0.3-2,0.8
		C91.4,13.5,91.1,14.3,90.9,15.4z"/>
	<path id="XMLID_6_" class="st0" d="M17,20.8L9.9,8.6C9.3,7.5,7.8,7.4,7.1,8.5L0.8,19.4l-0.6,1.1c-0.4,0.7-0.1,1.7,0.7,2.2
		c0.9,0.5,2,0.2,2.5-0.6l1.4-2.7l0.8-1.3l3-5.1l3.7,6.4H9.4h-1H7.6c-0.9,0-1.7,1-1.7,1.9c0,1,0.8,2.1,1.9,2.1h0.7h1h6.2
		C16.8,23.4,17.6,21.9,17,20.8z"/>
	<path id="XMLID_5_" class="st0" d="M40.4,10.4H38V5.9c0-1-0.5-1.8-1.5-1.8S35,5,35,5.9v4.5h-2.6c-0.8,0-1.4,0.7-1.4,1.5
		s0.6,1.5,1.4,1.5H35V26c0,1,0.5,1.8,1.5,1.8S38,27,38,26V13.4h2.4c0.8,0,1.4-0.7,1.4-1.5S41.2,10.4,40.4,10.4z"/>
	<path id="XMLID_4_" class="st0" d="M56.8,10.4H54V5.9c0-1-0.5-1.8-1.5-1.8S51,5,51,5.9v4.5h-2.3c-0.8,0-1.4,0.7-1.4,1.5
		s0.7,1.5,1.4,1.5H51V26c0,1,0.5,1.8,1.5,1.8S54,27,54,26V13.4h2.8c0.8,0,1.4-0.7,1.4-1.5S57.5,10.4,56.8,10.4z"/>
</g>
</svg>
