<?xml version="1.0" encoding="utf-8"?>
<!-- Generator: Adobe Illustrator 19.0.0, SVG Export Plug-In . SVG Version: 6.00 Build 0)  -->
<svg version="1.1" id="Layer_1" xmlns="http://www.w3.org/2000/svg" xmlns:xlink="http://www.w3.org/1999/xlink" x="0px" y="0px"
	 viewBox="0 0 10 10" style="enable-background:new 0 0 10 10;" xml:space="preserve">
<style type="text/css">
	.st0{fill:#FFFFFF;}
</style>
<path id="XMLID_5_" class="st0" d="M7.1,3.3l0.5-0.5c0.1-0.1,0.1-0.3,0-0.3c-0.1-0.1-0.3-0.1-0.3,0L6.8,3L6.3,2.5
	C6.2,2.4,6,2.4,5.9,2.5c-0.1,0.1-0.1,0.3,0,0.3l0.5,0.5L5.9,3.8c-0.1,0.1-0.1,0.3,0,0.3s0.3,0.1,0.3,0l0.5-0.5l0.5,0.5
	c0.1,0.1,0.3,0.1,0.3,0s0.1-0.3,0-0.3L7.1,3.3z"/>
<path id="XMLID_11_" class="st0" d="M2.8,5.2L2.8,5.2C2.9,5.1,2.9,5,2.9,5s0,0-0.1,0L2.8,5.2L2.7,5c0,0,0,0-0.1,0s0,0,0,0.1l0.1,0.1
	L2.6,5.3c0,0,0,0,0,0.1c0,0,0,0,0.1,0L2.8,5.2l0,0.2c0,0,0,0,0.1,0C2.9,5.3,2.9,5.3,2.8,5.2L2.8,5.2z"/>
<path id="XMLID_28_" class="st0" d="M7.5,4.9L7.5,4.9c0.1-0.1,0.1-0.1,0.1-0.2c0,0,0,0-0.1,0L7.5,4.9L7.3,4.7c0,0,0,0-0.1,0
	c0,0,0,0,0,0.1l0.1,0.1L7.3,5c0,0,0,0,0,0.1s0,0,0.1,0L7.5,4.9l0,0.2c0,0,0,0,0.1,0C7.6,5,7.6,5,7.5,4.9L7.5,4.9z"/>
<path id="XMLID_22_" class="st0" d="M5.3,7.7L5.3,7.7c0.1-0.1,0.1-0.1,0.1-0.2c0,0,0,0-0.1,0L5.3,7.7L5.1,7.5c0,0,0,0-0.1,0
	c0,0,0,0,0,0.1l0.1,0.1L5.1,7.8c0,0,0,0,0,0.1c0,0,0,0,0.1,0L5.3,7.7l0,0.2c0,0,0,0,0.1,0S5.4,7.8,5.3,7.7L5.3,7.7z"/>
<path id="XMLID_23_" class="st0" d="M7.8,6.4L7.8,6.4c0.1-0.1,0.1-0.1,0.1-0.2c0,0,0,0-0.1,0L7.8,6.4L7.6,6.2c0,0,0,0-0.1,0
	c0,0,0,0,0,0.1l0.1,0.1L7.6,6.5c0,0,0,0,0,0.1s0,0,0.1,0L7.8,6.4l0,0.2c0,0,0,0,0.1,0S7.9,6.5,7.8,6.4L7.8,6.4z"/>
<path id="XMLID_12_" class="st0" d="M3.1,7.3L3.1,7.3c0.1-0.1,0.1-0.1,0.1-0.1c0,0,0,0,0,0L3.1,7.3L3,7.2c0,0,0,0,0,0c0,0,0,0,0,0
	L3.1,7.3L3,7.4c0,0,0,0,0,0c0,0,0,0,0,0L3.1,7.3l0,0.1c0,0,0,0,0,0C3.2,7.4,3.2,7.4,3.1,7.3L3.1,7.3z"/>
<path id="XMLID_41_" class="st0" d="M5,6.1L5,6.1C5,6,5,6,5,6c0,0,0,0,0,0L5,6.1L4.9,6c0,0,0,0,0,0c0,0,0,0,0,0L5,6.1L4.8,6.2
	c0,0,0,0,0,0c0,0,0,0,0,0L5,6.1l0,0.1c0,0,0,0,0,0S5,6.2,5,6.1L5,6.1z"/>
<path id="XMLID_21_" class="st0" d="M2.5,2.4L2.5,2.4c0.1-0.1,0.1-0.1,0.1-0.1c0,0,0,0,0,0L2.5,2.4L2.4,2.3c0,0,0,0,0,0c0,0,0,0,0,0
	L2.5,2.4L2.3,2.4c0,0,0,0,0,0c0,0,0,0,0,0L2.5,2.4l0,0.1c0,0,0,0,0,0C2.6,2.5,2.6,2.4,2.5,2.4L2.5,2.4z"/>
<g id="XMLID_3_">
	<path id="XMLID_2_" class="st0" d="M3.5,4.1c-0.5,0-1-0.4-1-1c0-0.5,0.4-1,1-1s1,0.4,1,1C4.5,3.7,4,4.1,3.5,4.1z M3.5,2.5
		c-0.4,0-0.7,0.3-0.7,0.7c0,0.4,0.3,0.7,0.7,0.7s0.7-0.3,0.7-0.7C4.2,2.8,3.9,2.5,3.5,2.5z"/>
</g>
<g id="XMLID_7_">
	<path id="XMLID_8_" class="st0" d="M4.7,4.3c-0.1,0-0.2-0.1-0.2-0.2c0-0.1,0.1-0.2,0.2-0.2S5,3.9,5,4.1C5,4.2,4.9,4.3,4.7,4.3z
		 M4.7,3.9C4.6,3.9,4.6,4,4.6,4.1c0,0.1,0.1,0.2,0.2,0.2c0.1,0,0.2-0.1,0.2-0.2C4.9,4,4.8,3.9,4.7,3.9z"/>
</g>
<g id="XMLID_13_">
	<path id="XMLID_14_" class="st0" d="M5.4,5.4C5.3,5.4,5.3,5.3,5.4,5.4c-0.1-0.1,0-0.1,0-0.1C5.4,5.2,5.4,5.3,5.4,5.4
		C5.4,5.3,5.4,5.4,5.4,5.4z M5.4,5.3C5.3,5.3,5.3,5.3,5.4,5.3C5.3,5.3,5.3,5.3,5.4,5.3C5.4,5.3,5.4,5.3,5.4,5.3
		C5.4,5.3,5.4,5.3,5.4,5.3z"/>
</g>
<g id="XMLID_29_">
	<path id="XMLID_30_" class="st0" d="M3.8,5.4C3.8,5.4,3.7,5.3,3.8,5.4c-0.1-0.1,0-0.1,0-0.1C3.8,5.2,3.9,5.3,3.8,5.4
		C3.9,5.3,3.8,5.4,3.8,5.4z M3.8,5.3C3.8,5.3,3.7,5.3,3.8,5.3C3.7,5.3,3.8,5.3,3.8,5.3C3.8,5.3,3.8,5.3,3.8,5.3
		C3.8,5.3,3.8,5.3,3.8,5.3z"/>
</g>
<g id="XMLID_37_">
	<path id="XMLID_38_" class="st0" d="M2.9,6.6C2.8,6.6,2.8,6.6,2.9,6.6c-0.1-0.1,0-0.1,0-0.1C2.9,6.5,2.9,6.5,2.9,6.6
		C2.9,6.6,2.9,6.6,2.9,6.6z M2.9,6.5C2.8,6.5,2.8,6.5,2.9,6.5C2.8,6.6,2.8,6.6,2.9,6.5C2.9,6.6,2.9,6.6,2.9,6.5
		C2.9,6.5,2.9,6.5,2.9,6.5z"/>
</g>
<g id="XMLID_42_">
	<path id="XMLID_43_" class="st0" d="M7.8,4.1C7.8,4.1,7.8,4.1,7.8,4.1C7.8,4,7.8,4,7.8,4S7.9,4,7.8,4.1C7.9,4.1,7.9,4.1,7.8,4.1z
		 M7.8,4C7.8,4,7.8,4,7.8,4C7.8,4.1,7.8,4.1,7.8,4C7.9,4.1,7.9,4.1,7.8,4C7.9,4,7.9,4,7.8,4z"/>
</g>
<g id="XMLID_33_">
	<path id="XMLID_34_" class="st0" d="M5.4,3.5C5.3,3.5,5.3,3.5,5.4,3.5c-0.1-0.1,0-0.1,0-0.1C5.4,3.4,5.4,3.4,5.4,3.5
		C5.4,3.5,5.4,3.5,5.4,3.5z M5.4,3.4C5.3,3.4,5.3,3.4,5.4,3.4C5.3,3.5,5.3,3.5,5.4,3.4C5.4,3.5,5.4,3.5,5.4,3.4
		C5.4,3.4,5.4,3.4,5.4,3.4z"/>
</g>
<g id="XMLID_24_">
	<path id="XMLID_25_" class="st0" d="M4.4,7.2C4.4,7.2,4.3,7.2,4.4,7.2c-0.1-0.1,0-0.1,0-0.1C4.5,7.1,4.5,7.1,4.4,7.2
		C4.5,7.2,4.5,7.2,4.4,7.2z M4.4,7.1C4.4,7.1,4.4,7.1,4.4,7.1C4.4,7.2,4.4,7.2,4.4,7.1C4.4,7.2,4.5,7.2,4.4,7.1
		C4.5,7.1,4.4,7.1,4.4,7.1z"/>
</g>
<g id="XMLID_17_">
	<path id="XMLID_18_" class="st0" d="M4.7,2.6C4.7,2.6,4.7,2.5,4.7,2.6c-0.1-0.1,0-0.1,0-0.1S4.8,2.5,4.7,2.6
		C4.8,2.5,4.8,2.6,4.7,2.6z M4.7,2.5C4.7,2.5,4.7,2.5,4.7,2.5C4.7,2.5,4.7,2.6,4.7,2.5C4.8,2.6,4.8,2.5,4.7,2.5
		C4.8,2.5,4.8,2.5,4.7,2.5z"/>
</g>
<g id="XMLID_1_">
	<path id="XMLID_59_" class="st0" d="M4.1,7.5H3.2c-0.2,0-0.4-0.2-0.4-0.4V6.3c0-0.2,0.2-0.4,0.4-0.4h0.9c0.2,0,0.4,0.2,0.4,0.4v0.8
		C4.5,7.3,4.3,7.5,4.1,7.5z M3.2,6.2C3.1,6.2,3.1,6.2,3.2,6.2L3.1,7.1c0,0.1,0,0.1,0.1,0.1h0.9c0.1,0,0.1,0,0.1-0.1V6.3
		c0-0.1,0-0.1-0.1-0.1H3.2z"/>
</g>
<g id="XMLID_62_">
	<path id="XMLID_63_" class="st0" d="M4.4,5.3H4.3c0,0-0.1,0-0.1-0.1V5.1c0,0,0-0.1,0.1-0.1h0.1c0,0,0.1,0,0.1,0.1L4.4,5.3
		C4.5,5.3,4.4,5.3,4.4,5.3z M4.3,5.1C4.3,5.1,4.3,5.1,4.3,5.1l0,0.1c0,0,0,0,0,0h0.1c0,0,0,0,0,0V5.1c0,0,0,0,0,0H4.3z"/>
</g>
<g id="XMLID_66_">
	<path id="XMLID_67_" class="st0" d="M3.4,4.8H3.2c0,0-0.1,0-0.1-0.1V4.6c0,0,0-0.1,0.1-0.1h0.1c0,0,0.1,0,0.1,0.1L3.4,4.8
		C3.4,4.8,3.4,4.8,3.4,4.8z M3.2,4.6C3.2,4.6,3.2,4.6,3.2,4.6l0,0.1c0,0,0,0,0,0h0.1c0,0,0,0,0,0V4.6c0,0,0,0,0,0H3.2z"/>
</g>
<g id="XMLID_70_">
	<path id="XMLID_71_" class="st0" d="M5.7,2.1H5.6c0,0-0.1,0-0.1-0.1V2c0,0,0-0.1,0.1-0.1h0.1c0,0,0.1,0,0.1,0.1L5.7,2.1
		C5.8,2.1,5.7,2.1,5.7,2.1z M5.6,2C5.6,2,5.6,2,5.6,2l0,0.1c0,0,0,0,0,0h0.1c0,0,0,0,0,0V2c0,0,0,0,0,0H5.6z"/>
</g>
<g id="XMLID_46_">
	<path id="XMLID_48_" class="st0" d="M7.7,7.7H6.1c-0.2,0-0.3-0.2-0.2-0.3L6.7,6C6.8,5.9,7,5.9,7.1,6l0.8,1.3
		C7.9,7.5,7.8,7.7,7.7,7.7z M6.6,7.4h0.5c0.2,0,0.3-0.2,0.2-0.3L7.1,6.7C7,6.5,6.8,6.5,6.7,6.7L6.5,7.1C6.4,7.2,6.5,7.4,6.6,7.4z"/>
</g>
<g id="XMLID_51_">
	<path id="XMLID_52_" class="st0" d="M6.7,4.8H6.5c0,0,0,0,0,0l0.1-0.2c0,0,0,0,0,0L6.7,4.8C6.7,4.7,6.7,4.8,6.7,4.8z M6.5,4.7
		L6.5,4.7C6.6,4.7,6.6,4.7,6.5,4.7L6.5,4.7C6.6,4.6,6.6,4.6,6.5,4.7L6.5,4.7C6.5,4.7,6.5,4.7,6.5,4.7z"/>
</g>
<g id="XMLID_78_">
	<path id="XMLID_79_" class="st0" d="M2.6,6H2.4c0,0,0,0,0,0l0.1-0.2c0,0,0,0,0,0L2.6,6C2.7,6,2.7,6,2.6,6z M2.5,6L2.5,6
		C2.6,6,2.6,5.9,2.5,6L2.5,6C2.5,5.9,2.5,5.9,2.5,6L2.5,6C2.5,5.9,2.5,6,2.5,6z"/>
</g>
<g id="XMLID_47_">
	<path id="XMLID_82_" class="st0" d="M3.6,6.9H3.4c0,0,0,0,0,0l0.1-0.2c0,0,0,0,0,0L3.6,6.9C3.6,6.9,3.6,6.9,3.6,6.9z M3.4,6.9
		L3.4,6.9C3.5,6.9,3.5,6.9,3.4,6.9L3.4,6.9C3.5,6.8,3.5,6.8,3.4,6.9L3.4,6.9C3.4,6.9,3.4,6.9,3.4,6.9z"/>
</g>
<g id="XMLID_85_">
	<path id="XMLID_86_" class="st0" d="M5.7,4.8H5.5c0,0,0,0,0,0l0.1-0.2c0,0,0,0,0,0L5.7,4.8C5.8,4.7,5.8,4.8,5.7,4.8z M5.6,4.7
		L5.6,4.7C5.7,4.7,5.7,4.7,5.6,4.7L5.6,4.7C5.7,4.6,5.6,4.6,5.6,4.7L5.6,4.7C5.6,4.7,5.6,4.7,5.6,4.7z"/>
</g>
<g id="XMLID_55_">
	<path id="XMLID_56_" class="st0" d="M6.1,6.1H5.8c0,0,0,0,0-0.1l0.1-0.2c0,0,0.1,0,0.1,0L6.1,6.1C6.1,6,6.1,6.1,6.1,6.1z M5.9,6
		L5.9,6C6,6,6,6,6,5.9l0-0.1c0,0-0.1,0-0.1,0L5.9,6C5.9,6,5.9,6,5.9,6z"/>
</g>
<g id="XMLID_74_">
	<path id="XMLID_75_" class="st0" d="M8.3,2.3H8c0,0,0,0,0-0.1L8.1,2c0,0,0.1,0,0.1,0L8.3,2.3C8.3,2.3,8.3,2.3,8.3,2.3z M8.1,2.3
		L8.1,2.3c0.1,0,0.1,0,0.1-0.1l0-0.1c0,0-0.1,0-0.1,0L8.1,2.3C8,2.2,8.1,2.3,8.1,2.3z"/>
</g>
</svg>
